<svg width="108" height="98" viewBox="0 0 108 98" fill="none" xmlns="http://www.w3.org/2000/svg">
<rect width="108" height="98" fill="none"/>
<path d="M12.0607 98C4.12534 98 0.939185 86.4262 0.277908 81.8163C-0.434003 77.3407 0.226998 72.7909 2.20162 68.575C3.06949 66.5689 4.56228 64.7816 6.53328 63.3886C8.50427 61.9957 10.8856 61.0451 13.4433 60.6303C20.4769 59.6494 25.4665 63.0823 31.8389 64.2593C33.0359 64.5728 34.312 64.6277 35.5428 64.4189C36.7737 64.2101 37.9171 63.7447 38.8617 63.0679C39.8063 62.3912 40.5198 61.5263 40.9326 60.5576C41.3454 59.5889 41.4433 58.5494 41.217 57.5406C38.5719 49.1055 19.7555 48.9584 12.0607 48.9584C12.0607 39.8366 24.3243 38.6596 33.1013 39.3462C38.3082 39.7565 43.4352 40.6786 48.3708 42.0925C51.3766 42.9262 54.8633 45.035 58.1697 44.8389C63.1593 44.4956 64.1813 40.278 62.0171 37.1884C56.787 29.9302 41.9384 29.3417 33.1013 29.3417C33.1013 19.5334 43.5014 17.6698 53.4806 19.141C58.6334 19.9677 63.655 21.2674 68.4496 23.0153C71.5155 24.0942 75.1826 26.154 78.5491 25.2222C87.2058 23.0644 78.1884 15.512 74.3409 13.6974C71.6406 12.4818 68.7758 11.5273 65.8044 10.853C62.5582 10.0683 58.5905 10.3626 61.5362 7.27296C66.1423 3.95781 71.857 1.84029 77.9479 1.19179C89.3098 -0.966038 105 -1.35837 107.765 10.3135C108.687 16.4759 106.874 22.7037 102.656 27.8704C91.4561 43.4983 77.591 57.7484 61.4761 70.1934C52.9406 77.3312 43.6908 83.8764 33.8227 89.761C27.8111 93.292 19.8758 98 12.0607 98Z" fill="#daab3a"/>
</svg>
